<svg width="1767" height="2015" viewBox="0 0 1767 2015" fill="none" xmlns="http://www.w3.org/2000/svg">
<g filter="url(#filter0_d_7_695)">
<circle cx="364.216" cy="364.216" r="79.6723" fill="#1AD592"></circle>
<circle cx="623.72" cy="364.216" r="79.6723" fill="#1AD592"></circle>
<circle cx="883.224" cy="364.216" r="79.6723" fill="#1AD592"></circle>
<circle cx="1142.73" cy="364.216" r="79.6723" fill="#1AD592"></circle>
<circle cx="1402.23" cy="364.216" r="79.6723" fill="#1AD592"></circle>
<circle cx="364.216" cy="621.444" r="79.6723" fill="#08885A"></circle>
<circle cx="623.72" cy="621.444" r="79.6723" fill="#08885A"></circle>
<circle cx="883.224" cy="621.444" r="79.6723" fill="#08885A"></circle>
<circle cx="1142.73" cy="621.444" r="79.6723" fill="#1AD592"></circle>
<circle cx="1402.23" cy="621.444" r="79.6723" fill="#1AD592"></circle>
<circle cx="883.224" cy="878.672" r="79.6723" fill="#1AD592"></circle>
<circle cx="1142.73" cy="878.672" r="79.6723" fill="#1AD592"></circle>
<circle cx="623.72" cy="1135.9" r="79.6723" fill="#1AD592"></circle>
<circle cx="883.224" cy="1135.9" r="79.6723" fill="#1AD592"></circle>
<circle cx="364.216" cy="1393.13" r="79.6723" fill="#1AD592"></circle>
<circle cx="623.72" cy="1393.13" r="79.6723" fill="#1AD592"></circle>
<circle cx="883.224" cy="1393.13" r="79.6723" fill="#08885A"></circle>
<circle cx="1142.73" cy="1393.13" r="79.6723" fill="#08885A"></circle>
<circle cx="1402.23" cy="1393.13" r="79.6723" fill="#08885A"></circle>
<circle cx="364.216" cy="1650.35" r="79.6723" fill="#1AD592"></circle>
<circle cx="623.72" cy="1650.35" r="79.6723" fill="#1AD592"></circle>
<circle cx="883.224" cy="1650.35" r="79.6723" fill="#1AD592"></circle>
<circle cx="1142.73" cy="1650.35" r="79.6723" fill="#1AD592"></circle>
<circle cx="1402.23" cy="1650.35" r="79.6723" fill="#1AD592"></circle>
</g>
<defs>
<filter id="filter0_d_7_695" x="9.15527e-05" y="9.15527e-05" width="1766.45" height="2014.57" filterUnits="userSpaceOnUse" color-interpolation-filters="sRGB">
<feFlood flood-opacity="0" result="BackgroundImageFix"></feFlood>
<feColorMatrix in="SourceAlpha" type="matrix" values="0 0 0 0 0 0 0 0 0 0 0 0 0 0 0 0 0 0 127 0" result="hardAlpha"></feColorMatrix>
<feOffset></feOffset>
<feGaussianBlur stdDeviation="142.272"></feGaussianBlur>
<feComposite in2="hardAlpha" operator="out"></feComposite>
<feColorMatrix type="matrix" values="0 0 0 0 0.101961 0 0 0 0 0.835294 0 0 0 0 0.572549 0 0 0 0.3 0"></feColorMatrix>
<feBlend mode="normal" in2="BackgroundImageFix" result="effect1_dropShadow_7_695"></feBlend>
<feBlend mode="normal" in="SourceGraphic" in2="effect1_dropShadow_7_695" result="shape"></feBlend>
</filter>
</defs>
</svg>